<svg version="1.2" xmlns="http://www.w3.org/2000/svg" viewBox="0 0 800 619" width="800" height="619">
	<title>undraw_document-search_2o7x</title>
	<style>
		.s0 { fill: #cccccc } 
		.s1 { fill: #b6b3c5 } 
		.s2 { fill: #d6d6e3 } 
		.s3 { fill: #090814 } 
		.s4 { fill: #ffffff } 
		.s5 { fill: #f2f2f2 } 
		.s6 { fill: #fcc46c } 
		.s7 { fill: #e6e6e6 } 
		.s8 { fill: #3f3d56 } 
	</style>
	<g>
		<path class="s0" d="m129.9 616.5c0 0.9 0.5 1.6 1.1 1.6h535.1c0.6 0 1-0.7 1-1.6 0-0.8-0.4-1.5-1-1.5h-535.1c-0.6 0-1.1 0.7-1.1 1.5z"/>
		<path fill-rule="evenodd" class="s1" d="m305.2 611.4h19.1v3.3h-19.1z"/>
		<path fill-rule="evenodd" class="s1" d="m474.3 611.9h19.1v3.4h-19.1z"/>
		<path class="s2" d="m426.7 461.3c-1.1 6.5-4.4 12.3-9.4 16.5-5 4.2-11.3 6.6-17.8 6.6-6.5 0-12.8-2.4-17.8-6.6-5-4.2-8.3-10-9.3-16.5h-69.5v150.6h193.3v-150.6z"/>
		<path fill-rule="evenodd" class="s3" d="m303.4 600h193.3v5.2h-193.3z"/>
		<path class="s3" d="m788.3 465.3h-777.5c-1.4 0-2.8-0.3-4.1-0.9-1.4-0.5-2.5-1.3-3.5-2.3-1-1-1.8-2.2-2.4-3.5-0.5-1.3-0.8-2.7-0.8-4.1v-443.7c0-1.4 0.3-2.8 0.8-4.1 0.6-1.4 1.4-2.5 2.4-3.5 1-1 2.1-1.8 3.5-2.4 1.3-0.5 2.7-0.8 4.1-0.8h777.5c1.4 0 2.8 0.3 4.1 0.8 1.3 0.6 2.5 1.4 3.5 2.4 1 1 1.8 2.1 2.3 3.5 0.5 1.3 0.8 2.7 0.8 4.1v443.7c0 1.4-0.3 2.8-0.8 4.1-0.5 1.3-1.3 2.5-2.3 3.5-1 1-2.2 1.8-3.5 2.3-1.3 0.6-2.7 0.9-4.1 0.9z"/>
		<path fill-rule="evenodd" class="s4" d="m18.1 17h760.8v429.3h-760.8z"/>
		<g>
			<g>
				<path class="s3" d="m393.7 345.8l-104.6 27c-1.8 0.4-3.6 0.5-5.4 0.3-1.8-0.3-3.5-0.9-5.1-1.8-1.6-0.9-2.9-2.2-4-3.6-1.1-1.5-1.9-3.1-2.4-4.9l-31.6-122.9c-0.5-1.7-0.6-3.5-0.3-5.3 0.3-1.8 0.9-3.6 1.8-5.1 0.9-1.6 2.1-3 3.6-4 1.4-1.1 3.1-1.9 4.8-2.4l97.4-25.1 24.9 11.2 30.9 119.8c0.4 1.8 0.5 3.6 0.3 5.4-0.3 1.8-0.9 3.5-1.8 5.1-1 1.5-2.2 2.9-3.6 4-1.5 1.1-3.1 1.9-4.9 2.3z"/>
				<path class="s5" d="m251.5 227c-1.2 0.3-2.4 0.9-3.4 1.6-1.1 0.8-1.9 1.8-2.6 2.9-0.6 1.1-1.1 2.3-1.3 3.6-0.1 1.3-0.1 2.6 0.2 3.9l31.7 122.9c0.3 1.2 0.9 2.4 1.7 3.4 0.7 1 1.7 1.9 2.8 2.6 1.1 0.6 2.4 1.1 3.6 1.2 1.3 0.2 2.6 0.1 3.9-0.2l104.6-26.9c1.3-0.3 2.5-0.9 3.5-1.7 1-0.8 1.9-1.7 2.5-2.9 0.7-1.1 1.1-2.3 1.3-3.6 0.2-1.3 0.1-2.6-0.2-3.8l-30.4-118-21.9-9.8z"/>
				<path class="s3" d="m372.5 209.8l-16.2 4.2q-0.8 0.2-1.8 0.1-0.9-0.1-1.6-0.6-0.8-0.5-1.4-1.2-0.5-0.7-0.8-1.6l-3-12q-0.1-0.1 0-0.1 0-0.1 0.1-0.2 0 0 0.1 0 0.1 0 0.2 0l24.5 10.9q0.1 0 0.1 0.1 0.1 0.1 0.1 0.2-0.1 0.1-0.1 0.1-0.1 0.1-0.2 0.1z"/>
				<path class="s0" d="m364 314.8l-47.6 12.3c-0.6 0.1-1.2 0-1.8-0.3-0.5-0.3-0.9-0.8-1-1.4-0.2-0.6-0.1-1.2 0.2-1.7 0.3-0.6 0.8-1 1.4-1.1l47.7-12.3c0.6-0.1 1.2 0 1.7 0.3 0.5 0.3 0.9 0.8 1.1 1.4 0.1 0.6 0 1.2-0.3 1.7-0.3 0.5-0.8 0.9-1.4 1.1z"/>
				<path class="s0" d="m375.2 319.9l-56.9 14.7c-0.6 0.1-1.2 0-1.7-0.3-0.6-0.3-0.9-0.8-1.1-1.4-0.1-0.6 0-1.2 0.3-1.7 0.3-0.5 0.8-0.9 1.4-1.1l56.8-14.6c0.6-0.2 1.2-0.1 1.7 0.2 0.6 0.3 1 0.8 1.1 1.4 0.2 0.6 0.1 1.3-0.2 1.8-0.3 0.5-0.9 0.9-1.4 1z"/>
				<path fill-rule="evenodd" class="s6" d="m296.9 341.8c-4.5 0-8.1-3.6-8.1-8.1 0-4.5 3.6-8.1 8.1-8.1 4.5 0 8.2 3.6 8.2 8.1 0 4.5-3.7 8.1-8.2 8.1z"/>
				<path class="s4" d="m359 293.5l-63.3 16.3q-1.4 0.3-2.8 0.1-1.4-0.2-2.6-0.9-1.2-0.7-2.1-1.8-0.8-1.2-1.2-2.5l-13.3-51.6q-0.3-1.3-0.1-2.7 0.2-1.4 0.9-2.6 0.7-1.3 1.9-2.1 1.1-0.9 2.5-1.2l63.2-16.3q1.4-0.4 2.8-0.2 1.4 0.2 2.6 1 1.3 0.7 2.1 1.8 0.9 1.1 1.2 2.5l13.3 51.5q0.3 1.4 0.1 2.8-0.2 1.4-0.9 2.6-0.7 1.2-1.8 2.1-1.2 0.8-2.5 1.2z"/>
				<path class="s7" d="m359 293.5l-63.3 16.3q-1.4 0.3-2.8 0.1-1.4-0.2-2.6-0.9-1.2-0.7-2.1-1.8-0.8-1.2-1.2-2.5l-13.3-51.6q-0.3-1.3-0.1-2.7 0.2-1.4 0.9-2.6 0.7-1.3 1.9-2.1 1.1-0.9 2.5-1.2l63.2-16.3q1.4-0.4 2.8-0.2 1.4 0.2 2.6 1 1.3 0.7 2.1 1.8 0.9 1.1 1.2 2.5l13.3 51.5q0.3 1.4 0.1 2.8-0.2 1.4-0.9 2.6-0.7 1.2-1.8 2.1-1.2 0.8-2.5 1.2zm-79.9-48.2q-1.2 0.3-2.2 1.1-1 0.7-1.7 1.8-0.6 1.1-0.8 2.3-0.1 1.2 0.2 2.4l13.2 51.6q0.3 1.2 1.1 2.2 0.7 1 1.8 1.6 1.1 0.6 2.3 0.8 1.3 0.2 2.5-0.1l63.2-16.3q1.3-0.3 2.3-1.1 1-0.7 1.6-1.8 0.6-1.1 0.8-2.3 0.2-1.3-0.1-2.5l-13.3-51.5q-0.3-1.2-1.1-2.2-0.7-1-1.8-1.6-1.1-0.7-2.3-0.8-1.2-0.2-2.4 0.1z"/>
				<path class="s5" d="m338.9 245.5l-31.9 8.2q-0.2 0.1-0.4 0.1-0.2-0.1-0.4-0.2-0.2-0.1-0.4-0.2-0.1-0.2-0.2-0.4-0.1-0.2 0-0.4 0-0.3 0.1-0.5 0.1-0.2 0.3-0.3 0.2-0.1 0.4-0.2l32.5-8.4c1.3 0.7 1 2.1 0 2.3z"/>
				<path class="s5" d="m340.4 251.1l-32 8.2q-0.2 0.1-0.4 0.1-0.2-0.1-0.4-0.2-0.2-0.1-0.3-0.2-0.2-0.2-0.2-0.4-0.1-0.2-0.1-0.4 0-0.3 0.1-0.5 0.2-0.2 0.3-0.3 0.2-0.1 0.4-0.2l32.5-8.4c1.4 0.7 1 2.1 0.1 2.3z"/>
				<path class="s6" d="m302.4 264.3l-9.8 2.5q-0.2 0.1-0.5 0-0.2 0-0.4-0.1-0.2-0.2-0.4-0.3-0.1-0.2-0.2-0.5l-3-11.5q0-0.2 0-0.5 0.1-0.2 0.2-0.4 0.1-0.2 0.3-0.4 0.2-0.1 0.4-0.2l9.8-2.5q0.2-0.1 0.5 0 0.2 0 0.4 0.1 0.2 0.2 0.4 0.4 0.1 0.1 0.2 0.4l3 11.5q0 0.2 0 0.5-0.1 0.2-0.2 0.4-0.1 0.2-0.3 0.4-0.2 0.1-0.4 0.2z"/>
				<path class="s5" d="m343.2 262.6l-48.7 12.6q-0.2 0-0.4 0-0.2 0-0.4-0.1-0.2-0.1-0.4-0.3-0.1-0.2-0.2-0.4-0.1-0.2 0-0.4 0-0.2 0.1-0.4 0.1-0.2 0.3-0.4 0.2-0.1 0.4-0.2l49.3-12.7c1.3 0.7 1 2.1 0 2.3z"/>
				<path class="s5" d="m344.7 268.2l-48.8 12.6q-0.2 0-0.4 0-0.2 0-0.4-0.1-0.2-0.1-0.3-0.3-0.2-0.2-0.2-0.4-0.1-0.2-0.1-0.4 0-0.2 0.1-0.4 0.2-0.2 0.3-0.4 0.2-0.1 0.4-0.2l49.3-12.7c1.4 0.7 1 2.1 0.1 2.3z"/>
				<path class="s5" d="m346.1 273.8l-48.7 12.6q-0.2 0-0.4 0-0.3 0-0.5-0.1-0.1-0.1-0.3-0.3-0.1-0.2-0.2-0.4-0.1-0.2 0-0.4 0-0.2 0.1-0.4 0.1-0.2 0.3-0.4 0.2-0.1 0.4-0.2l49.3-12.7c1.3 0.7 0.9 2.1 0 2.3z"/>
				<path class="s5" d="m347.6 279.4l-48.8 12.6q-0.2 0-0.4 0-0.2 0-0.4-0.1-0.2-0.1-0.3-0.3-0.2-0.2-0.3-0.4 0-0.2 0-0.4 0-0.2 0.1-0.4 0.1-0.2 0.3-0.4 0.2-0.1 0.4-0.2l49.3-12.7c1.3 0.7 1 2.1 0.1 2.3z"/>
				<path class="s5" d="m349 285l-48.7 12.6q-0.2 0-0.5 0-0.2 0-0.4-0.1-0.2-0.1-0.3-0.3-0.1-0.2-0.2-0.4-0.1-0.2-0.1-0.4 0.1-0.2 0.2-0.4 0.1-0.2 0.3-0.4 0.1-0.1 0.4-0.2l49.3-12.7c1.3 0.7 0.9 2.1 0 2.3z"/>
				<path class="s4" d="m297.5 336.5q0 0.1-0.1 0.1-0.1 0-0.1 0-0.1 0-0.2-0.1 0 0-0.1 0l-2.2-0.9q-0.3-0.2-0.5-0.5-0.1-0.3 0-0.6 0.2-0.4 0.5-0.5 0.3-0.1 0.6 0l1.5 0.6 1.9-4.4q0-0.2 0.1-0.3 0.2-0.1 0.3-0.2 0.2 0 0.3 0 0.2 0 0.4 0v0.1-0.1q0.1 0.1 0.2 0.2 0.2 0.1 0.2 0.3 0.1 0.2 0.1 0.3 0 0.2-0.1 0.4l-2.2 5.2q0 0-0.1 0.1 0 0.1-0.1 0.2-0.1 0-0.2 0.1-0.1 0-0.2 0z"/>
			</g>
			<g>
				<g>
					<path class="s3" d="m496.4 378.2l-106-20.7c-1.8-0.3-3.5-1-5-2-1.5-1-2.8-2.3-3.8-3.8-1.1-1.5-1.8-3.2-2.1-5-0.4-1.7-0.4-3.6-0.1-5.4l24.3-124.5c0.3-1.8 1-3.5 2-5 1-1.5 2.3-2.8 3.8-3.9 1.5-1 3.2-1.7 5-2 1.7-0.4 3.6-0.4 5.4-0.1l98.6 19.2 17.8 20.8-23.7 121.4c-0.3 1.8-1 3.5-2 5-1 1.5-2.3 2.8-3.8 3.8-1.5 1.1-3.2 1.8-5 2.1-1.7 0.4-3.6 0.4-5.4 0.1z"/>
					<path class="s5" d="m419.1 209.7c-1.3-0.2-2.6-0.2-3.8 0.1-1.3 0.2-2.5 0.7-3.6 1.4-1 0.8-2 1.7-2.7 2.8-0.7 1-1.2 2.3-1.4 3.5l-24.3 124.6c-0.2 1.3-0.2 2.6 0.1 3.8 0.2 1.3 0.7 2.5 1.5 3.6 0.7 1 1.6 2 2.7 2.7 1.1 0.7 2.3 1.2 3.5 1.4l106.1 20.7c1.3 0.2 2.6 0.2 3.8-0.1 1.3-0.2 2.5-0.7 3.6-1.4 1.1-0.8 2-1.7 2.7-2.8 0.7-1.1 1.2-2.3 1.4-3.5l23.3-119.6-15.6-18.2z"/>
					<path class="s6" d="m497.5 262.6l-48.3-9.4c-0.6-0.1-1.1-0.5-1.5-1-0.3-0.5-0.4-1.1-0.3-1.7 0.1-0.6 0.5-1.1 1-1.5 0.5-0.3 1.1-0.5 1.7-0.3l48.3 9.4c0.6 0.1 1.1 0.4 1.4 0.9 0.4 0.5 0.5 1.2 0.4 1.7-0.1 0.6-0.5 1.2-1 1.5-0.5 0.4-1.1 0.5-1.7 0.4z"/>
					<path class="s6" d="m505.3 272l-57.6-11.2c-0.6-0.1-1.1-0.5-1.4-1-0.4-0.5-0.5-1.1-0.4-1.7 0.1-0.6 0.5-1.1 1-1.5 0.5-0.3 1.1-0.4 1.7-0.3l57.6 11.2c0.6 0.1 1.1 0.5 1.5 1 0.3 0.5 0.5 1.1 0.3 1.7-0.1 0.6-0.4 1.1-0.9 1.5-0.5 0.3-1.2 0.4-1.8 0.3z"/>
					<path class="s0" d="m491.7 292.2l-48.3-9.4c-0.6-0.1-1.2 0-1.7 0.4-0.5 0.3-0.8 0.9-1 1.5-0.1 0.6 0.1 1.2 0.4 1.7 0.3 0.5 0.9 0.8 1.5 1l48.3 9.3c0.6 0.2 1.2 0 1.7-0.3 0.5-0.4 0.8-0.9 1-1.5 0.1-0.6-0.1-1.2-0.4-1.7-0.3-0.5-0.9-0.9-1.5-1z"/>
					<path class="s0" d="m499.6 301.7l-57.6-11.2c-0.6-0.2-1.3 0-1.8 0.3-0.5 0.4-0.8 0.9-0.9 1.5-0.2 0.6 0 1.2 0.3 1.7 0.4 0.5 0.9 0.9 1.5 1l57.6 11.2c0.6 0.1 1.2 0 1.7-0.4 0.5-0.3 0.9-0.8 1-1.4 0.1-0.6 0-1.3-0.4-1.8-0.3-0.5-0.8-0.8-1.4-0.9z"/>
					<path class="s0" d="m484.2 330.9l-48.3-9.4c-0.6-0.1-1.1-0.4-1.4-0.9-0.4-0.6-0.5-1.2-0.4-1.8 0.1-0.6 0.5-1.1 1-1.4 0.5-0.4 1.1-0.5 1.7-0.4l48.3 9.4c0.6 0.1 1.1 0.5 1.5 1 0.3 0.5 0.4 1.1 0.3 1.7-0.1 0.6-0.5 1.1-1 1.5-0.5 0.3-1.1 0.4-1.7 0.3z"/>
					<path class="s0" d="m492.1 340.4l-57.7-11.2c-0.6-0.2-1.1-0.5-1.4-1-0.4-0.5-0.5-1.1-0.4-1.7 0.1-0.6 0.5-1.2 1-1.5 0.5-0.4 1.1-0.5 1.7-0.4l57.6 11.2c0.6 0.2 1.2 0.5 1.5 1 0.3 0.5 0.5 1.1 0.4 1.7-0.2 0.6-0.5 1.2-1 1.5-0.5 0.3-1.1 0.5-1.7 0.4z"/>
					<path fill-rule="evenodd" class="s6" d="m427.2 258.8c-4.4-0.8-7.2-5.1-6.4-9.5 0.9-4.4 5.1-7.3 9.5-6.5 4.5 0.9 7.3 5.2 6.5 9.6-0.9 4.4-5.1 7.3-9.6 6.4z"/>
					<path class="s4" d="m427.4 253.7q-0.1 0-0.1 0-0.1 0-0.1-0.1-0.1 0-0.2 0 0-0.1-0.1-0.1v-0.1l-1.6-1.8q-0.2-0.2-0.2-0.6 0-0.3 0.3-0.6 0.3-0.2 0.6-0.2 0.4 0.1 0.6 0.3l1 1.2 3.6-3.2q0.2-0.1 0.3-0.2 0.2 0 0.4 0 0.1 0 0.3 0.1 0.1 0 0.2 0.2 0.2 0.1 0.2 0.3 0.1 0.1 0.1 0.3-0.1 0.2-0.1 0.3-0.1 0.2-0.2 0.3l-4.3 3.7q0 0.1-0.1 0.1-0.1 0.1-0.2 0.1-0.1 0-0.2 0-0.1 0-0.2 0z"/>
					<path class="s6" d="m431 286.7q-0.4 1.6-1.2 3-0.9 1.3-2.3 2.2-1.3 0.9-2.9 1.2-1.6 0.4-3.2 0 0 0 0 0-0.1 0-0.1 0 0 0 0 0-0.1 0-0.1 0c-3.2-0.7-5.6-3.3-6.2-6.5-0.6-3.2 0.8-6.4 3.5-8.2 2.7-1.8 6.3-1.8 9 0 2.7 1.8 4.1 5.1 3.5 8.3z"/>
					<path fill-rule="evenodd" class="s6" d="m414 327.2c-4.5-0.9-7.3-5.2-6.5-9.6 0.9-4.4 5.1-7.3 9.6-6.4 4.4 0.8 7.3 5.1 6.4 9.5-0.9 4.4-5.1 7.3-9.5 6.5z"/>
					<path class="s3" d="m535.7 246.3l-16.4-3.2q-0.9-0.2-1.6-0.7-0.8-0.5-1.3-1.3-0.5-0.7-0.7-1.6-0.2-0.9 0-1.8l2.3-12.2q0.1 0 0.1-0.1 0.1-0.1 0.2-0.1 0 0 0.1 0 0.1 0 0.1 0.1l17.5 20.4q0.1 0.1 0.1 0.1 0 0.1-0.1 0.2 0 0.1-0.1 0.1-0.1 0.1-0.2 0.1z"/>
				</g>
			</g>
		</g>
		<path class="s8" d="m595.6 123.4h-391.2c-2.6 0-5.2-0.5-7.6-1.5-2.5-1.1-4.7-2.5-6.5-4.4-1.9-1.9-3.4-4.1-4.4-6.5-1-2.4-1.5-5-1.5-7.7v-18.2c0-2.7 0.5-5.3 1.5-7.7 1-2.4 2.5-4.6 4.4-6.5 1.8-1.9 4-3.4 6.5-4.4 2.4-1 5-1.5 7.6-1.5h391.2c2.6 0 5.2 0.5 7.6 1.5 2.5 1 4.7 2.5 6.5 4.4 1.9 1.9 3.4 4.1 4.4 6.5 1 2.4 1.5 5 1.5 7.7v18.2c0 2.7-0.5 5.3-1.5 7.7-1 2.4-2.5 4.6-4.4 6.5-1.8 1.9-4 3.3-6.5 4.4-2.4 1-5 1.5-7.6 1.5zm-391.2-57.2c-2.4 0-4.9 0.5-7.2 1.5-2.3 0.9-4.3 2.3-6.1 4-1.7 1.8-3.1 3.9-4.1 6.2-0.9 2.2-1.4 4.7-1.4 7.2v18.2c0 2.5 0.5 4.9 1.4 7.2 1 2.3 2.4 4.4 4.1 6.1 1.8 1.8 3.8 3.2 6.1 4.1 2.3 1 4.8 1.5 7.2 1.5h391.2c2.4 0 4.9-0.5 7.2-1.5 2.3-0.9 4.3-2.3 6.1-4.1 1.7-1.7 3.1-3.8 4.1-6.1 0.9-2.3 1.4-4.7 1.4-7.2v-18.2c0-2.5-0.5-5-1.4-7.2-1-2.3-2.4-4.4-4.1-6.2-1.8-1.7-3.8-3.1-6.1-4-2.3-1-4.8-1.5-7.2-1.5z"/>
		<path fill-rule="evenodd" class="s6" d="m226.2 82.6h271.9c6.4 0 11.6 5.2 11.6 11.6 0 6.4-5.2 11.6-11.6 11.6h-271.9c-6.3 0-11.5-5.2-11.5-11.6 0-6.4 5.2-11.6 11.5-11.6z"/>
		<g>
			<path class="s6" d="m585.2 112.1q-0.3 0.3-0.7 0.6-0.4 0.3-0.9 0.3-0.4 0.1-0.9 0-0.4-0.1-0.8-0.4l-13-9c-0.5-0.3-0.8-0.9-0.9-1.5-0.2-0.6 0-1.3 0.3-1.8 0.4-0.5 1-0.8 1.6-0.9 0.6-0.2 1.2 0 1.7 0.4l13 9q0.4 0.2 0.6 0.6 0.3 0.4 0.4 0.9 0 0.5-0.1 0.9-0.1 0.5-0.3 0.9z"/>
			<path class="s6" d="m570.5 101.8c-3.9 5.6-10.8 8.3-17.5 6.8-6.6-1.5-11.7-6.8-12.9-13.5-1.2-6.7 1.8-13.5 7.5-17.1 5.8-3.7 13.2-3.5 18.7 0.4 1.9 1.2 3.4 2.8 4.6 4.7 1.2 1.9 2 4 2.4 6.1 0.3 2.2 0.3 4.5-0.2 6.6-0.5 2.2-1.4 4.2-2.6 6zm-24.2-16.9c-2.9 4.2-3 9.7-0.3 14.1 2.8 4.3 7.8 6.5 12.9 5.6 5-0.9 9-4.7 10.1-9.7 1.1-5-0.9-10.1-5.1-13.1-1.3-0.9-2.9-1.6-4.5-2-1.6-0.3-3.3-0.4-4.9-0.1-1.7 0.3-3.2 0.9-4.6 1.8-1.4 0.9-2.6 2.1-3.6 3.4z"/>
		</g>
	</g>
</svg>